<svg xmlns="http://www.w3.org/2000/svg" xmlns:xlink="http://www.w3.org/1999/xlink" width="625" zoomAndPan="magnify" viewBox="0 0 468.75 187.499995" height="250" preserveAspectRatio="xMidYMid meet" version="1.0"><path fill="#ffffff" d="M 458.941406 92.050781 L 393.085938 158.015625 L 327.226562 92.050781 L 393.085938 26.113281 Z M 458.941406 92.050781 " fill-opacity="1" fill-rule="nonzero"/><path fill="#ffffff" d="M 9.253906 164.328125 L 23.785156 62.222656 C 27.03125 39.691406 50.777344 20.035156 76.246094 20.035156 C 102.089844 20.035156 114.351562 38.019531 111.863281 55.277344 L 109.753906 70.140625 C 108.027344 82.601562 98.835938 94.589844 82.5625 103.453125 L 99.222656 131.734375 C 101.136719 134.847656 101.90625 139.636719 101.136719 144.6875 C 99.414062 155.464844 91.371094 164.328125 82.5625 164.328125 C 77.78125 164.328125 73.945312 161.703125 71.65625 157.625 L 47.140625 115.1875 L 42.929688 144.914062 C 41.394531 155.703125 33.351562 164.328125 24.734375 164.328125 Z M 67.4375 41.132812 C 61.878906 41.132812 56.714844 46.648438 55.761719 53.597656 L 51.5625 84.375 C 50.613281 91.328125 54.25 96.847656 59.800781 96.847656 C 65.351562 96.847656 70.519531 91.328125 71.480469 84.375 L 75.671875 53.597656 C 76.632812 46.648438 72.984375 41.132812 67.4375 41.132812 " fill-opacity="1" fill-rule="nonzero"/><path fill="#ffffff" d="M 128.097656 42.5625 C 129.820312 30.097656 139.582031 19.796875 149.542969 19.796875 C 159.5 19.796875 166.199219 30.097656 164.476562 42.5625 L 157.398438 94.101562 L 177.125 94.101562 L 184.394531 42.5625 C 186.117188 30.097656 195.886719 19.796875 205.847656 19.796875 C 215.800781 19.796875 222.503906 30.097656 220.777344 42.5625 L 206.992188 141.558594 C 205.265625 154.019531 195.503906 164.332031 185.539062 164.332031 C 175.589844 164.332031 168.886719 154.019531 170.609375 141.558594 L 175.015625 109.441406 L 155.105469 109.441406 L 150.695312 141.558594 C 148.964844 154.019531 139.203125 164.332031 129.253906 164.332031 L 111.246094 164.332031 Z M 128.097656 42.5625 " fill-opacity="1" fill-rule="nonzero"/><path fill="#ffffff" d="M 321.832031 61.261719 C 320.292969 70.851562 315.121094 80.195312 305.925781 88.824219 C 312.25 95.539062 314.925781 104.402344 313.589844 113.035156 L 312.25 121.902344 C 308.804688 144.675781 285.246094 164.324219 259.976562 164.324219 L 219.949219 164.324219 L 234.691406 61.988281 C 237.957031 39.453125 261.699219 19.800781 287.160156 19.800781 C 313.007812 19.800781 325.460938 37.773438 322.773438 55.035156 Z M 272.613281 93.621094 C 266.289062 93.621094 260.359375 100.089844 259.207031 108.003906 L 256.335938 128.617188 C 255.1875 136.523438 259.398438 142.992188 265.71875 142.992188 C 272.035156 142.992188 278.167969 136.523438 279.3125 128.617188 L 282.1875 108.003906 C 283.34375 100.089844 278.921875 93.621094 272.613281 93.621094 M 280.273438 41.128906 C 273.957031 41.128906 268.207031 47.601562 266.867188 55.511719 L 264.570312 69.652344 C 263.222656 77.5625 267.636719 84.03125 273.957031 84.03125 C 280.273438 84.03125 286.210938 77.5625 287.554688 69.652344 L 289.847656 55.511719 C 291.1875 47.601562 286.589844 41.128906 280.273438 41.128906 " fill-opacity="1" fill-rule="nonzero"/></svg>